# AST/ASF file generated using VICON BodyLanguage
# -----------------------------------------------
:version 1.10
:name VICON
:units
  mass 1.0
  length 0.45
  angle deg
:documentation
   .ast/.asf automatically generated from VICON data using
   VICON BodyBuilder and BodyLanguage model FoxedUp or BRILLIANT.MOD
:root
   order TX TY TZ RX RY RZ
   axis XYZ
   position 0 0 0  
   orientation 0 0 0 
:bonedata
  begin
     id 1 
     name lhipjoint
     direction 0.521689 -0.742065 0.420928 
     length 2.47002 
     axis 0 0 0  XYZ
  end
  begin
     id 2 
     name lfemur
     direction 0.34202 -0.939693 0  
     length 7.24654  
     axis 0 0 20  XYZ
    dof rx ry rz
    limits (-160.0 20.0)
           (-70.0 70.0)
           (-60.0 70.0)
  end
  begin
     id 3 
     name ltibia
     direction 0.34202 -0.939693 0   
     length 8.04849   
     axis 0 0 20   XYZ
    dof rx
    limits (-10.0 170.0)
  end
  begin
     id 4 
     name lfoot
     direction 0.0745411 -0.2048 0.975961   
     length 1.72367   
     axis -90 7.62852e-016 20   XYZ
    dof rx rz
    limits (-45.0 90.0)
           (-70.0 20.0)
  end
  begin
     id 5 
     name ltoes
     direction 1.53556e-011 -4.21901e-011 1   
     length 0.87311   
     axis -90 7.62852e-016 20   XYZ
    dof rx
    limits (-90.0 20.0)
  end
  begin
     id 6 
     name rhipjoint
     direction -0.52849 -0.738415 0.418857   
     length 2.48223  
     axis 0 0 0  XYZ 
  end
  begin
     id 7 
     name rfemur
     direction -0.34202 -0.939693 0   
     length 7.15571   
     axis 0 0 -20   XYZ
    dof rx ry rz
    limits (-160.0 20.0)
           (-70.0 70.0)
           (-70.0 60.0)
  end
  begin
     id 8 
     name rtibia
     direction -0.34202 -0.939693 0   
     length 7.81659   
     axis 0 0 -20   XYZ
    dof rx
    limits (-10.0 170.0)
 end
 begin
     id 9 
     name rfoot
     direction -0.0917348 -0.252039 0.963359   
     length 1.84382  
     axis -90 -7.62852e-016 -20   XYZ
    dof rx rz
    limits (-45.0 90.0)
           (-20.0 70.0)
  end
  begin
     id 10 
     name rtoes
     direction -1.53551e-011 -4.21879e-011 1   
     length 0.927771   
     axis -90 -7.62852e-016 -20   XYZ
    dof rx
    limits (-90.0 20.0)
  end
  begin
     id 11 
     name lowerback
     direction 0.00583058 0.999822 0.0179296   
     length 2.1429   
     axis 0 0 0   XYZ
    dof rx ry rz
    limits (-20.0 45.0)
           (-30.0 30.0)
           (-30.0 30.0)
  end
  begin
     id 12 
     name upperback
     direction -0.0137999 0.999752 -0.0175071   
     length 2.14252   
     axis 0 0 0   XYZ
    dof rx ry rz
    limits (-20.0 45.0)
           (-30.0 30.0)
           (-30.0 30.0)
  end
  begin
     id 13 
     name thorax
     direction -0.0158036 0.99955 -0.0254909   
     length 2.1383   
     axis 0 0 0   XYZ
    dof rx ry rz
    limits (-20.0 45.0)
           (-30.0 30.0)
           (-30.0 30.0)
  end
  begin
     id 14 
     name lowerneck
     direction -0.0101179 0.999403 -0.0330262   
     length 1.65808   
     axis 0 0 0   XYZ
    dof rx ry rz
    limits (-20.0 45.0)
           (-30.0 30.0)
           (-30.0 30.0)
  end
  begin
     id 15 
     name upperneck
     direction 0.0497734 0.995978 -0.074501   
     length 1.5897   
     axis 0 0 0   XYZ
    dof rx ry rz
    limits (-20.0 45.0)
           (-30.0 30.0)
           (-30.0 30.0)
  end
  begin
     id 16
     name head
     direction 0.0189524 0.999519 -0.0245438  
     length 1.74024  
     axis 0 0 0   XYZ
    dof rx ry rz
    limits (-20.0 45.0)
           (-30.0 30.0)
           (-30.0 30.0)
  end
  begin
     id 17 
     name lclavicle
     direction 0.945604 0.324422 0.0241537  
     length 3.59089  
     axis 0 0 0   XYZ
    dof ry rz
    limits (-20.0 10.0)
           (0.0 20.0)
  end
  begin
     id 18 
     name lhumerus
     direction 1 -4.48964e-011 -2.63524e-027   
     length 5.2391   
     axis 180 -30 -90   XYZ
    dof rx ry rz
    limits (-60.0 90.0)
           (-90.0 90.0)
           (-90.0 90.0)
  end
  begin
     id 19
     name lradius
     direction 1 -4.48969e-011 3.86978e-028   
     length 3.31467   
     axis 180 -30 -90   XYZ
    dof rx
    limits (-10.0 170.0)
  end
  begin
     id 20
     name lwrist
     direction 1 -4.48963e-011 7.20928e-028   
     length 1.65734   
     axis -5.52449e-016 90 90   XYZ
    dof ry
    limits (-180.0 0.0)
 end
  begin
     id 21 
     name lhand
     direction 1 -4.48964e-011 1.44186e-027   
     length 0.9659   
     axis -9.20027e-016 90 90   XYZ
    dof rx rz
    limits (-90.0 90.0)
           (-45.0 45.0)
  end
  begin
     id 22 
     name lfingers
     direction 1 -4.48965e-011 2.88371e-027   
     length 0.778733   
     axis -1.84005e-015 90 90   XYZ
    dof rx
    limits (0.0 90.0)
  end
  begin
     id 23
     name lthumb
     direction 0.707107 -6.34931e-011 0.707107   
     length 1.11811   
     axis -90 45 2.85299e-015   XYZ
    dof rx rz
    limits (-45.0 45.0)
           (-45.0 45.0)
  end
  begin
     id 24 
     name rclavicle
     direction -0.923762 0.370785 0.0958234   
     length 3.54196  
     axis 0 0 0   XYZ 
    dof ry rz
    limits (-10.0 20.0)
           (-20.0 0.0)
  end
  begin
     id 25 
     name rhumerus
     direction -1 -4.48966e-011 1.18702e-017  
     length 5.30252   
     axis 180 30 90   XYZ
    dof rx ry rz
    limits (-90.0 60.0)
           (-90.0 90.0)
           (-90.0 90.0)
  end
  begin
     id 26 
     name rradius
     direction -1 -4.48966e-011 4.46736e-027   
     length 3.67875   
     axis 180 30 90   XYZ
    dof rx
    limits (-10.0 170.0)
  end
  begin
     id 27 
     name rwrist
     direction -1 -4.48966e-011 7.20928e-028   
     length 1.83937   
     axis -5.52449e-016 -90 -90   XYZ
    dof ry
    limits (-180.0 0.0)
  end
  begin
     id 28
     name rhand
     direction -1 -4.48973e-011 1.44186e-027   
     length 0.594811   
     axis -9.20027e-016 -90 -90   XYZ
    dof rx rz
    limits (-90.0 90.0)
           (-45.0 45.0)
  end
  begin
     id 29
     name rfingers
     direction -1 -4.48963e-011 2.88371e-027   
     length 0.479552   
     axis -1.84005e-015 -90 -90   XYZ
    dof rx
    limits (0.0 90.0)
  end
  begin
     id 30
     name rthumb
     direction -0.707107 -6.34932e-011 0.707107   
     length 0.688544   
     axis -90 -45 -2.85299e-015   XYZ
    dof rx rz
    limits (-45.0 45.0)
           (-45.0 45.0)
  end
:hierarchy
  begin
    root lhipjoint rhipjoint lowerback
    lhipjoint lfemur
    lfemur ltibia
    ltibia lfoot
    lfoot ltoes
    rhipjoint rfemur
    rfemur rtibia
    rtibia rfoot
    rfoot rtoes
    lowerback upperback
    upperback thorax
    thorax lowerneck lclavicle rclavicle
    lowerneck upperneck
    upperneck head
    lclavicle lhumerus
    lhumerus lradius
    lradius lwrist
    lwrist lhand lthumb
    lhand lfingers
    rclavicle rhumerus
    rhumerus rradius
    rradius rwrist
    rwrist rhand rthumb
    rhand rfingers
  end

#!OML:ASF E:\acrobat2\Project_11_07_03\Capture day 1\Session 1\Acrobat.ASF
:FULLY-SPECIFIED
:DEGREES
588
root 8.25608 18.1633 -20.2161 11.7379 -0.615884 0.986366
lowerback 1.29155 5.92726 5.66673
upperback -1.13835 8.00966 -1.41895
thorax -0.921334 3.95475 -4.70515
lowerneck -4.04427 -6.36384 -5.01466
upperneck 5.41428 -8.55827 5.84347
head 2.99303 -4.18449 2.43834
rclavicle 5.98342e-014 -1.98785e-014
rhumerus 58.8068 29.3433 -25.3341
rradius 59.2829
rwrist 10.2144
rhand -23.5479 -33.817
rfingers 7.12502
rthumb 2.91402 -63.7768
lclavicle 5.98342e-014 -1.98785e-014
lhumerus -70.3934 -17.8915 66.7594
lradius 5.61185
lwrist 3.52941
lhand -7.45861 -4.95099
lfingers 7.12502
lthumb 18.4297 24.196
rfemur -7.70902 -0.271743 22.8673
rtibia 24.1925
rfoot -19.6416 -1.02984
rtoes 4.14303
lfemur -39.4193 -4.9916 -4.88604
ltibia 89.2322
lfoot 10.7868 -5.04052
ltoes 34.3968
589
root 8.29894 18.3173 -19.9891 11.797 -2.77749 0.804169
lowerback 1.18631 6.37579 6.34772
upperback -0.90913 8.6078 -1.52969
thorax -0.437978 4.27233 -5.14236
lowerneck -3.9778 -6.74444 -4.29273
upperneck 4.63012 -9.0221 4.85983
head 2.63744 -4.43525 1.96939
rclavicle 3.12092e-014 -3.97569e-015
rhumerus 62.4274 27.6086 -22.3508
rradius 59.6556
rwrist 10.1444
rhand -23.8666 -33.6331
rfingers 7.12502
rthumb 2.60618 -63.5969
lclavicle 3.12092e-014 -3.97569e-015
lhumerus -71.4268 -17.8991 66.3858
lradius 6.03396
lwrist 4.60627
lhand -6.38661 -3.81907
lfingers 7.12502
lthumb 19.4607 25.2271
rfemur -6.68893 0.408426 22.5351
rtibia 23.045
rfoot -16.8012 -1.39086
rtoes 4.82089
lfemur -40.8603 -5.58883 -5.01769
ltibia 89.2032
lfoot 9.96137 -5.39143
ltoes 33.1571
590
root 8.34599 18.471 -19.7604 11.7977 -4.85709 0.657251
lowerback 1.32445 6.77589 7.05092
upperback -0.782853 9.15983 -1.69385
thorax -0.174981 4.56013 -5.6781
lowerneck -4.61654 -6.34407 -4.44069
upperneck 5.68006 -8.49993 4.97613
head 3.1018 -4.15925 2.02997
rclavicle 8.05078e-015 7.95139e-015
rhumerus 65.5502 25.9298 -20.0072
rradius 60.0194
rwrist 10.1485
rhand -23.7893 -33.5493
rfingers 7.12502
rthumb 2.68085 -63.5122
lclavicle 8.05078e-015 7.95139e-015
lhumerus -72.4631 -17.9095 66.0141
lradius 6.29071
lwrist 5.80729
lhand -5.25188 -2.46215
lfingers 7.12502
lthumb 20.5514 26.47
rfemur -5.8283 0.478784 22.1395
rtibia 22.2698
rfoot -13.9603 -1.94523
rtoes 5.61453
lfemur -42.1835 -6.38105 -5.09622
ltibia 88.9723
lfoot 9.03226 -5.78386
ltoes 32.1548
591
root 8.39267 18.6215 -19.5305 11.8112 -6.92165 0.529655
lowerback 1.57055 7.28223 7.78122
upperback -0.771694 9.86829 -1.96371
thorax -0.0262427 4.92189 -6.34973
lowerneck -4.71514 -6.0841 -3.87906
upperneck 6.19525 -8.18726 4.69922
head 3.23339 -3.99488 1.84845
rclavicle -7.11649e-014 9.54166e-015
rhumerus 67.9294 24.1806 -17.9552
rradius 59.9178
rwrist 10.3073
rhand -23.8302 -33.333
rfingers 7.12502
rthumb 2.64136 -63.2964
lclavicle -7.11649e-014 9.54166e-015
lhumerus -73.52 -18.4086 65.6528
lradius 6.68782
lwrist 6.78334
lhand -4.17849 -1.42507
lfingers 7.12502
lthumb 21.5825 27.3923
rfemur -5.23884 0.287714 21.7292
rtibia 21.9058
rfoot -11.1257 -2.83388
rtoes 6.41278
lfemur -43.4136 -7.24636 -5.11098
ltibia 88.5522
lfoot 8.11723 -6.05609
ltoes 31.2941
592
root 8.43423 18.7643 -19.3008 11.8035 -9.0442 0.406774
lowerback 1.80448 7.774 8.38458
upperback -0.610275 10.5519 -2.13181
thorax 0.264462 5.28408 -6.82893
lowerneck -4.67452 -6.27429 -3.56554
upperneck 5.77906 -8.41192 4.15167
head 3.04364 -4.12123 1.60651
rclavicle 1.93815e-014 1.59028e-015
rhumerus 70.2962 22.3135 -16.3479
rradius 59.9042
rwrist 10.8703
rhand -23.8457 -33.3964
rfingers 7.12502
rthumb 2.62636 -63.36
lclavicle 1.93815e-014 1.59028e-015
lhumerus -74.2506 -18.6458 65.3623
lradius 6.88798
lwrist 7.85571
lhand -3.09119 -0.753637
lfingers 7.12502
lthumb 22.6264 27.9402
rfemur -4.90851 -0.00668363 21.3319
rtibia 21.9891
rfoot -8.35147 -4.0412
rtoes 6.90985
lfemur -44.5366 -8.06211 -5.03443
ltibia 87.9358
lfoot 7.0568 -6.26059
ltoes 28.8594
593
root 8.47685 18.9006 -19.0722 11.7804 -11.1102 0.340899
lowerback 2.12324 8.00245 8.83315
upperback -0.324144 10.8846 -2.10049
thorax 0.522596 5.47305 -7.03745
lowerneck -5.26776 -5.97788 -3.93911
upperneck 6.06687 -7.96626 3.98919
head 3.24613 -3.90554 1.62133
rclavicle -5.45664e-014 3.18055e-014
rhumerus 73.3347 20.42 -14.5119
rradius 59.8375
rwrist 11.0762
rhand -24.2956 -32.915
rfingers 7.12502
rthumb 2.19189 -62.8835
lclavicle -5.45664e-014 3.18055e-014
lhumerus -75.0917 -18.0455 65.1608
lradius 6.95061
lwrist 8.98372
lhand -2.25374 -0.281243
lfingers 7.12502
lthumb 23.43 28.3123
rfemur -4.84304 -0.56967 20.8739
rtibia 22.5026
rfoot -6.07067 -5.46006
rtoes 5.59058
lfemur -45.6631 -8.86953 -4.92941
ltibia 87.2864
lfoot 6.04079 -6.27643
ltoes 28.6904
594
root 8.5193 19.0292 -18.8478 11.8288 -13.1027 0.290731
lowerback 2.57092 8.33242 9.35438
upperback -0.164907 11.3746 -2.23885
thorax 0.661511 5.73524 -7.48134
lowerneck -5.66292 -5.78132 -4.03537
upperneck 6.18032 -7.67968 3.91438
head 3.34884 -3.76336 1.61745
rclavicle 8.94531e-015 -2.54444e-014
rhumerus 75.5612 18.4454 -13.1172
rradius 59.9283
rwrist 10.8676
rhand -24.5793 -32.3693
rfingers 7.12502
rthumb 1.91787 -62.3404
lclavicle 8.94531e-015 -2.54444e-014
lhumerus -75.8904 -18.01 64.8819
lradius 7.25878
lwrist 9.8502
lhand -1.70285 0.186786
lfingers 7.12502
lthumb 23.9584 28.7119
rfemur -5.09032 -1.36523 20.4282
rtibia 23.4548
rfoot -4.63843 -6.95029
rtoes 4.9823
lfemur -46.8831 -9.6079 -4.71499
ltibia 86.5524
lfoot 4.93953 -6.39052
ltoes 28.0154
